<svg xmlns="http://www.w3.org/2000/svg" width="14.373" height="14.442" viewBox="0 0 14.373 14.442"><defs><style>.a{fill:#fd3e67;fill-rule:evenodd;}</style></defs><path class="a" d="M12.529,2.1A7.158,7.158,0,0,0,1.265,10.734L.25,14.442l3.794-1a7.149,7.149,0,0,0,3.42.871h0A7.159,7.159,0,0,0,12.529,2.1ZM7.466,13.109h0a5.941,5.941,0,0,1-3.027-.829l-.217-.129-2.251.591.6-2.195-.141-.225a5.948,5.948,0,1,1,5.039,2.787Zm3.263-4.455c-.179-.09-1.058-.522-1.222-.582s-.283-.089-.4.09-.462.582-.566.7S8.33,9,8.151,8.908A4.884,4.884,0,0,1,6.713,8.02a5.394,5.394,0,0,1-.995-1.239c-.1-.179,0-.267.078-.365a5.058,5.058,0,0,0,.447-.612.329.329,0,0,0-.015-.313c-.045-.089-.4-.97-.551-1.328s-.293-.3-.4-.307-.223-.006-.343-.006a.657.657,0,0,0-.477.224A2.006,2.006,0,0,0,3.83,5.567a3.478,3.478,0,0,0,.73,1.85,7.971,7.971,0,0,0,3.055,2.7,10.235,10.235,0,0,0,1.019.377,2.451,2.451,0,0,0,1.126.071,1.842,1.842,0,0,0,1.207-.85,1.494,1.494,0,0,0,.1-.85c-.045-.075-.164-.119-.343-.209Zm0,0" transform="translate(-0.25)"/></svg>