<svg xmlns="http://www.w3.org/2000/svg" width="15.634" height="15.249" viewBox="0 0 15.634 15.249"><defs><style>.a{fill:#fd3e67;}</style></defs><path class="a" d="M7.817,0A7.818,7.818,0,0,0,5.346,15.235c.39.072.517-.17.517-.376V13.4c-2.174.473-2.627-.922-2.627-.922a2.07,2.07,0,0,0-.868-1.144c-.709-.485.054-.475.054-.475a1.641,1.641,0,0,1,1.2.806,1.664,1.664,0,0,0,2.275.649,1.658,1.658,0,0,1,.5-1.045c-1.736-.2-3.561-.869-3.561-3.864a3.025,3.025,0,0,1,.805-2.1A2.812,2.812,0,0,1,3.71,3.242s.657-.21,2.15.8a7.409,7.409,0,0,1,3.914,0c1.492-1.011,2.148-.8,2.148-.8A2.809,2.809,0,0,1,12,5.311a3.017,3.017,0,0,1,.8,2.1c0,3-1.829,3.664-3.569,3.857a1.868,1.868,0,0,1,.536,1.447v2.145c0,.208.125.452.522.375A7.818,7.818,0,0,0,7.817,0Z"/></svg>