<svg xmlns="http://www.w3.org/2000/svg" width="15.634" height="12.705" viewBox="0 0 15.634 12.705"><defs><style>.a{fill:#fd3e67}</style></defs><path d="M15.634,3.752a6.4,6.4,0,0,1-1.842.5A3.213,3.213,0,0,0,15.2,2.483a6.425,6.425,0,0,1-2.037.778A3.21,3.21,0,0,0,7.7,6.186,9.106,9.106,0,0,1,1.089,2.835a3.212,3.212,0,0,0,.992,4.282,3.194,3.194,0,0,1-1.452-.4A3.21,3.21,0,0,0,3.2,9.9a3.215,3.215,0,0,1-1.449.055,3.21,3.21,0,0,0,3,2.227A6.449,6.449,0,0,1,0,13.512a9.08,9.08,0,0,0,4.917,1.441,9.071,9.071,0,0,0,9.117-9.541,6.53,6.53,0,0,0,1.6-1.66Z" class="a" transform="translate(0 -2.248)"/></svg>
